PathFileType	4	(X/Y/Z)	./resultDataOpenSim/trcMotMarkerGrf/sub09/qtm-13-08.trc
DataRate	CameraRate	NumFrames	NumMarkers	Units	OrigDataRate	OrigDataStartFrame	OrigNumFrames
250.000000	250.000000	8	24	m	250.000000	300	479
Frame#	Time	L.Toe.Tip			R.Toe.Tip			L.Ankle.Lat			R.Ankle.Lat			L.Ankle.Med			R.Ankle.Med			L.Heel			R.Heel			L.Knee.Lat			R.Knee.Lat			L.Knee.Med			R.Knee.Med			L.Thigh.Upper			R.Thigh.Upper			L.ASIS			R.ASIS			V.Sacral			L.Acromium			R.Acromium			C7			L.Elbow			R.Elbow			L.Wrist.Lat			R.Wrist.Lat
		X1	Y1	Z1	X2	Y2	Z2	X3	Y3	Z3	X4	Y4	Z4	X5	Y5	Z5	X6	Y6	Z6	X7	Y7	Z7	X8	Y8	Z8	X9	Y9	Z9	X10	Y10	Z10	X11	Y11	Z11	X12	Y12	Z12	X13	Y13	Z13	X14	Y14	Z14	X15	Y15	Z15	X16	Y16	Z16	X17	Y17	Z17	X18	Y18	Z18	X19	Y19	Z19	X20	Y20	Z20	X21	Y21	Z21	X22	Y22	Z22	X23	Y23	Z23	X24	Y24	Z24

300	1.196	0.16371598	-0.005910873	-0.058568828	1.0639548	0.042308237	0.10192806	0.068030307	0.1335531	-0.10639186	0.91610706	0.054905921	0.14042801	0.11856021	0.12322316	-0.023259339	0.91980842	0.090633845	0.046954273	0.021125539	0.14651495	-0.065589976	0.8469297	0.031953863	0.094210958	0.38924598	0.42385745	-0.14007375	0.87227342	0.51409545	0.17257525	0.39628079	0.40684679	-0.016342635	0.85845788	0.49146521	0.049332006	0.55243371	0.79802593	-0.1485108	0.61041069	0.81860509	0.22224612	0.6669904	0.86699712	-0.10353135	0.68029804	0.89535946	0.13761059	0.51066524	0.94226882	0.022589975	0.69569224	1.3376582	-0.12020911	0.65454828	1.3315151	0.20906778	0.61030056	1.3884015	0.04044291	0.55757027	0.99012384	-0.20775928	0.48735294	1.0110338	0.2769479	0.77271061	0.82684575	-0.17003845	0.56939266	0.75638164	0.32799641
301	1.2	0.16514315	-0.0048551744	-0.059220161	1.0645678	0.041843149	0.10152313	0.079959049	0.13310939	-0.11179779	0.91648973	0.054948744	0.14004655	0.12406501	0.12599433	-0.025068333	0.92031847	0.090309471	0.046514814	0.026002371	0.15087216	-0.067369823	0.84729361	0.032057278	0.094173389	0.39943952	0.42226498	-0.14108254	0.87925553	0.51341785	0.17287398	0.40633192	0.40441526	-0.01746616	0.86577474	0.49223765	0.049065321	0.56003172	0.79700222	-0.14777645	0.6177242	0.81925389	0.22316138	0.67415383	0.86641584	-0.1023747	0.68750732	0.89608391	0.13857035	0.51820203	0.94214913	0.023645302	0.70300072	1.3374806	-0.11963802	0.66154919	1.3313845	0.20969129	0.61717132	1.3882772	0.041026028	0.56405523	0.99033972	-0.20695489	0.49538552	1.0103424	0.2775887	0.77794256	0.8253069	-0.16993254	0.57821827	0.75595607	0.32872817
302	1.204	0.16673441	-0.0036163691	-0.059898083	1.0650914	0.041444669	0.10118934	0.091668868	0.13379166	-0.11674858	0.91674979	0.054938612	0.13968004	0.1298075	0.12896098	-0.026673514	0.9206091	0.090035151	0.046197101	0.030758515	0.15514797	-0.069183258	0.84754229	0.032117739	0.094203085	0.40979862	0.42068466	-0.14212965	0.88597613	0.51277944	0.17319215	0.41658028	0.40192181	-0.018508458	0.87285444	0.49283322	0.048713693	0.56756739	0.79606118	-0.14692799	0.62508523	0.81996594	0.2240566	0.68129283	0.8660048	-0.10116882	0.69460609	0.89685341	0.13951051	0.52604585	0.94219201	0.02559257	0.71035222	1.3373848	-0.11908858	0.66851534	1.3313537	0.21031313	0.62401818	1.3883055	0.041597903	0.57059481	0.99063578	-0.20618116	0.50352039	1.0097372	0.27829746	0.7830935	0.8237814	-0.16986207	0.5871061	0.7556285	0.32943172
303	1.208	0.16851691	-0.0021942528	-0.060583244	1.0655296	0.041130181	0.10092478	0.10160507	0.13599339	-0.12032196	0.91702706	0.054867604	0.13930659	0.13580336	0.13209763	-0.028075024	0.92077725	0.089835098	0.045942642	0.035513459	0.15946728	-0.07109724	0.84772429	0.032161165	0.094204879	0.42047705	0.41912138	-0.14323098	0.89235248	0.51215909	0.17341981	0.42722513	0.39942105	-0.019543244	0.87964002	0.49324337	0.048322091	0.57505088	0.79520746	-0.14590024	0.63247172	0.82073091	0.22494827	0.68839497	0.86576003	-0.099929615	0.70158521	0.89759904	0.14043402	0.53401495	0.94236735	0.028220285	0.71767011	1.3373845	-0.11852643	0.67546066	1.3314184	0.21092984	0.63086231	1.3884793	0.042163148	0.57719575	0.99101268	-0.205442	0.51172359	1.0092173	0.2790489	0.78816894	0.8222701	-0.1698309	0.59604458	0.75538221	0.3300971
304	1.212	0.17052543	-0.00058192567	-0.061258548	1.0658706	0.040897257	0.10071539	0.10942141	0.13943908	-0.1223296	0.91735545	0.054783676	0.13895013	0.14207203	0.13538051	-0.029276871	0.92095072	0.089716291	0.045702454	0.040744746	0.1642253	-0.07314505	0.84787459	0.032200907	0.094139792	0.43155603	0.41752402	-0.14435261	0.89835096	0.51154907	0.17348436	0.43849206	0.39697483	-0.020670734	0.8860715	0.49345003	0.047959732	0.58246235	0.79444446	-0.1446759	0.63984974	0.8215377	0.22584473	0.69540661	0.86566393	-0.098701959	0.70843942	0.89828283	0.14133647	0.54179228	0.94265031	0.03079877	0.72489598	1.3374871	-0.11793332	0.68238817	1.3315789	0.21153333	0.63771393	1.3887737	0.042719741	0.58385329	0.99146909	-0.20474385	0.51991681	1.0087504	0.27978812	0.79317466	0.82076254	-0.16982681	0.60501884	0.75521585	0.33071661
305	1.216	0.17279352	0.0012322093	-0.061924828	1.0661221	0.040718643	0.10051119	0.11612538	0.14347748	-0.12334255	0.91770583	0.054733039	0.13864884	0.14862258	0.13880131	-0.030281708	0.92121238	0.08965529	0.045460344	0.047247159	0.16997743	-0.075150348	0.84799777	0.032234013	0.094031729	0.4429816	0.41583218	-0.14541962	0.90402913	0.5109873	0.17340694	0.45030122	0.39464051	-0.021844905	0.89209539	0.49344945	0.047683576	0.58977045	0.79379061	-0.14333783	0.64717004	0.82237364	0.2267442	0.70225164	0.86569631	-0.097543251	0.71515986	0.89890195	0.14221469	0.54914198	0.94304481	0.032647256	0.7320192	1.3376944	-0.11731888	0.68928957	1.3318406	0.21210968	0.64455926	1.3891522	0.043261056	0.59055201	0.99200127	-0.2040864	0.52804256	1.0082985	0.28048321	0.79811468	0.81925172	-0.16983047	0.61401473	0.75514459	0.33128339
306	1.22	0.17534362	0.0032542821	-0.062591274	1.0662971	0.04057201	0.1002813	0.12282377	0.14764713	-0.12397024	0.918018	0.054722307	0.13842688	0.15547034	0.14235761	-0.031089224	0.92154734	0.089611285	0.045232958	0.055587758	0.17694376	-0.076637855	0.8480792	0.032251153	0.093926782	0.45466228	0.41402902	-0.14635784	0.9094879	0.51052934	0.17326004	0.46220913	0.39246035	-0.022852408	0.89767949	0.49326442	0.047516965	0.59695996	0.79329284	-0.14206994	0.65437565	0.8232187	0.22763354	0.70888854	0.8658482	-0.096485668	0.72174062	0.89947869	0.14306634	0.55597727	0.94358624	0.033413879	0.73905344	1.3380083	-0.11669894	0.69615295	1.3322085	0.21264491	0.65136077	1.3895847	0.043781228	0.59727824	0.99261044	-0.20345691	0.53603432	1.0078879	0.28110797	0.80299368	0.81774907	-0.1698494	0.62302152	0.7551842	0.33178973
307	1.224	0.17818107	0.0054785119	-0.063259299	1.0664013	0.04045282	0.10006657	0.13006583	0.15182319	-0.12450065	0.91822295	0.054736276	0.13829222	0.16264312	0.146039	-0.031701693	0.92187043	0.089558464	0.045055401	0.065564412	0.18469017	-0.077224275	0.84810888	0.03225046	0.093858884	0.46655791	0.41215348	-0.14713812	0.91480283	0.51018463	0.1731153	0.47382283	0.39044669	-0.023523305	0.90282365	0.49294295	0.04745399	0.60403746	0.79298202	-0.14102593	0.66142367	0.82405348	0.2284946	0.71533008	0.86611948	-0.095526237	0.7281892	0.90004578	0.14388948	0.56228303	0.94430055	0.033083407	0.74600535	1.3384315	-0.11608582	0.70297147	1.3326831	0.21313512	0.65808037	1.3900673	0.044274223	0.60402573	0.99330095	-0.20284288	0.54377135	1.0076413	0.28161952	0.80781503	0.81627802	-0.16990831	0.63205022	0.75534662	0.33223931
